<?xml version="1.0" encoding="UTF-8" standalone="no"?>
<svg
   xmlns:dc="http://purl.org/dc/elements/1.1/"
   xmlns:cc="http://creativecommons.org/ns#"
   xmlns:rdf="http://www.w3.org/1999/02/22-rdf-syntax-ns#"
   xmlns:svg="http://www.w3.org/2000/svg"
   xmlns="http://www.w3.org/2000/svg"
   xmlns:sodipodi="http://sodipodi.sourceforge.net/DTD/sodipodi-0.dtd"
   xmlns:inkscape="http://www.inkscape.org/namespaces/inkscape"
   width="128"
   height="128"
   viewBox="0 0 128 128.00001"
   version="1.1"
   id="svg8"
   inkscape:version="1.0.1 (3bc2e813f5, 2020-09-07)"
   sodipodi:docname="favicon.svg"
   inkscape:export-filename="/home/henrique/Documents/GitHub/spaceshooter/assets/Favicon/favicon.png"
   inkscape:export-xdpi="96"
   inkscape:export-ydpi="96">
  <defs
     id="defs2">
    <filter
       inkscape:collect="always"
       style="color-interpolation-filters:sRGB"
       id="filter1526"
       x="-0.0049328548"
       width="1.0098656"
       y="-0.0065092305"
       height="1.0130185">
      <feGaussianBlur
         inkscape:collect="always"
         stdDeviation="1.2398471"
         id="feGaussianBlur1528" />
    </filter>
  </defs>
  <sodipodi:namedview
     id="base"
     pagecolor="#1a1a1a"
     bordercolor="#666666"
     borderopacity="1.0"
     inkscape:pageopacity="0"
     inkscape:pageshadow="2"
     inkscape:zoom="2.3229563"
     inkscape:cx="-15.266392"
     inkscape:cy="35.679399"
     inkscape:document-units="px"
     inkscape:current-layer="layer1"
     inkscape:document-rotation="0"
     showgrid="false"
     units="px"
     inkscape:window-width="1920"
     inkscape:window-height="1022"
     inkscape:window-x="0"
     inkscape:window-y="30"
     inkscape:window-maximized="1"
     inkscape:snap-global="false" />
  <metadata
     id="metadata5">
    <rdf:RDF>
      <cc:Work
         rdf:about="">
        <dc:format>image/svg+xml</dc:format>
        <dc:type
           rdf:resource="http://purl.org/dc/dcmitype/StillImage" />
        <dc:title></dc:title>
      </cc:Work>
    </rdf:RDF>
  </metadata>
  <g
     inkscape:label="Layer 1"
     inkscape:groupmode="layer"
     id="layer1">
    <rect
       style="opacity:1;fill:#322947;fill-opacity:1;stroke:none;stroke-width:1.99816;stroke-linecap:round"
       id="rect1126"
       width="128"
       height="128"
       x="0"
       y="0"
       sodipodi:insensitive="true" />
    <g
       transform="matrix(1.7129435,-0.45898183,0.45898183,1.7129435,-20.787247,-577.17613)"
       id="g1433"
       inkscape:label="purple"
       inkscape:export-filename="/home/henrique/Documents/GitHub/spaceshooter/assets/Cover/purple_planet.png"
       inkscape:export-xdpi="96"
       inkscape:export-ydpi="96">
      <circle
         style="opacity:1;fill:#8d5fd3;fill-opacity:1;stroke:none;stroke-width:4.23333;stroke-linecap:round;stroke-linejoin:round;stroke-miterlimit:4;stroke-dasharray:none;stroke-dashoffset:0;stroke-opacity:1;paint-order:normal"
         id="circle866"
         cx="33.866673"
         cy="263.1333"
         r="33.866673" />
      <path
         inkscape:connector-curvature="0"
         id="rect1042"
         d="m 59.531765,241.27109 c -8.153802,-0.0131 -25.286803,4.70203 -31.466811,4.70203 -6.226904,0 -15.125449,-2.04289 -21.8177902,-2.39882 A 33.866672,33.866672 0 0 0 0.14934489,260.14745 H 4.394047 c 6.81932,0 16.851586,2.4567 23.670907,2.4567 6.819318,0 26.974893,-5.74105 33.686832,-4.53564 l 5.69681,1.02319 a 33.866672,33.866672 0 0 0 -7.761801,-17.817 c -0.05297,-5e-4 -0.101269,-0.004 -0.15503,-0.004 z"
         style="opacity:1;fill:#7137c8;fill-opacity:1;stroke:none;stroke-width:4.23333;stroke-linecap:round;stroke-linejoin:round;stroke-miterlimit:4;stroke-dasharray:none;stroke-dashoffset:0;stroke-opacity:1;paint-order:normal" />
      <circle
         transform="matrix(0.8660254,0.5,0.5,-0.8660254,0,0)"
         style="opacity:1;fill:#442178;fill-opacity:1;stroke:none;stroke-width:4.23334;stroke-linecap:round;stroke-linejoin:round;stroke-miterlimit:4;stroke-dasharray:none;stroke-dashoffset:0;stroke-opacity:1;paint-order:normal"
         id="circle1110"
         cx="151.86221"
         cy="-233.09579"
         r="4.2333426" />
      <circle
         transform="matrix(0.8660254,0.5,0.5,-0.8660254,0,0)"
         r="8.4666567"
         cy="-216.16251"
         cx="168.79556"
         id="circle1112"
         style="opacity:1;fill:#442178;fill-opacity:1;stroke:none;stroke-width:8.46666;stroke-linecap:round;stroke-linejoin:round;stroke-miterlimit:4;stroke-dasharray:none;stroke-dashoffset:0;stroke-opacity:1;paint-order:normal" />
      <circle
         transform="matrix(0.8660254,0.5,0.5,-0.8660254,0,0)"
         r="2.1166759"
         cy="-235.21249"
         cx="166.67888"
         id="circle1114"
         style="opacity:1;fill:#442178;fill-opacity:1;stroke:none;stroke-width:2.11668;stroke-linecap:round;stroke-linejoin:round;stroke-miterlimit:4;stroke-dasharray:none;stroke-dashoffset:0;stroke-opacity:1;paint-order:normal" />
      <circle
         style="opacity:1;fill:#442178;fill-opacity:1;stroke:none;stroke-width:3.34481;stroke-linecap:round;stroke-linejoin:round;stroke-miterlimit:4;stroke-dasharray:none;stroke-dashoffset:0;stroke-opacity:1;paint-order:normal"
         id="circle1116"
         cx="181.18762"
         cy="-227.38246"
         r="3.3448141"
         transform="matrix(0.8660254,0.5,0.5,-0.8660254,0,0)" />
      <rect
         style="opacity:1;fill:#ffffff;fill-opacity:1;stroke:none;stroke-width:3.52778;stroke-linecap:round;stroke-linejoin:round;stroke-miterlimit:4;stroke-dasharray:none;stroke-dashoffset:0;stroke-opacity:1;paint-order:normal"
         id="rect1125"
         width="21.166666"
         height="7.0555558"
         x="4.2333336"
         y="264.54443"
         ry="3.5277779" />
      <rect
         style="opacity:1;fill:#ffffff;fill-opacity:1;stroke:none;stroke-width:4.23333;stroke-linecap:round;stroke-linejoin:round;stroke-miterlimit:4;stroke-dasharray:none;stroke-dashoffset:0;stroke-opacity:1;paint-order:normal"
         id="rect1127"
         width="25.4"
         height="8.4666662"
         x="21.166666"
         y="246.19998"
         ry="4.2333331" />
      <rect
         ry="2.8222225"
         y="274.42221"
         x="42.333332"
         height="5.6444449"
         width="16.933334"
         id="rect1129"
         style="opacity:1;fill:#ffffff;fill-opacity:1;stroke:none;stroke-width:2.82222;stroke-linecap:round;stroke-linejoin:round;stroke-miterlimit:4;stroke-dasharray:none;stroke-dashoffset:0;stroke-opacity:1;paint-order:normal" />
      <rect
         style="opacity:1;fill:#ffffff;fill-opacity:1;stroke:none;stroke-width:2.82222;stroke-linecap:round;stroke-linejoin:round;stroke-miterlimit:4;stroke-dasharray:none;stroke-dashoffset:0;stroke-opacity:1;paint-order:normal"
         id="rect1131"
         width="16.933334"
         height="5.6444449"
         x="16.933332"
         y="282.88889"
         ry="2.8222225" />
    </g>
    <g
       id="g1603"
       inkscape:export-filename="/home/henrique/Documents/GitHub/spaceshooter/assets/Cover/earth.png"
       inkscape:export-xdpi="96"
       inkscape:export-ydpi="96"
       transform="matrix(-0.26011842,0,0,0.26011842,153.08721,12.535814)">
      <circle
         style="fill:#4b5bab;fill-opacity:1;stroke:none;stroke-width:13.3675;stroke-linecap:round;stroke-linejoin:round;stroke-miterlimit:4;stroke-dasharray:none;stroke-dashoffset:0;stroke-opacity:1;paint-order:fill markers stroke"
         id="circle1055"
         cx="681.25824"
         cy="160.96109"
         r="237.6561"
         transform="rotate(23.500002)" />
      <path
         style="fill:#3ca370;fill-opacity:1;stroke:none;stroke-width:2.67349;stroke-linecap:round;stroke-linejoin:round;stroke-miterlimit:4;stroke-dasharray:none;stroke-dashoffset:0;stroke-opacity:1;paint-order:fill markers stroke"
         d="m 436.70974,401.26616 c -12.26106,-5.33126 -26.4249,0.24641 -31.75616,12.50747 -5.33126,12.26106 0.24836,26.42575 12.50941,31.75701 l -3.88593,-1.68965 c 11.9981,5.21693 17.45552,19.07552 12.2386,31.07361 -5.21692,11.99811 -19.0744,17.45833 -31.07251,12.2414 l -1.84215,-0.80099 c -12.26105,-5.33126 -26.42489,0.24641 -31.75615,12.50747 -5.33126,12.26105 0.24921,26.42379 12.51026,31.75505 l 92.72028,40.31593 c 12.26106,5.33126 26.42491,-0.2464 31.75617,-12.50746 5.33126,-12.26106 -0.24922,-26.4238 -12.51027,-31.75506 l 4.16196,1.80968 c -11.9981,-5.21693 -17.45748,-19.07636 -12.24055,-31.07446 5.21692,-11.9981 19.07636,-17.45749 31.07446,-12.24056 l 15.88439,6.90674 c 12.26106,5.33125 26.42576,-0.24837 31.75702,-12.50943 5.33126,-12.26105 -0.24922,-26.42379 -12.51028,-31.75505 z"
         id="path1057"
         inkscape:connector-curvature="0" />
      <path
         inkscape:connector-curvature="0"
         id="path1059"
         d="m 760.65061,332.61864 c 12.48192,5.4273 18.16291,19.84515 12.73562,32.32706 -5.4273,12.48193 -19.84714,18.16205 -32.32906,12.73476 l 3.95593,1.72009 c -12.21422,-5.3109 -26.32132,0.2477 -31.63221,12.46191 -5.3109,12.21423 0.24482,26.32245 12.45905,31.63334 l 1.87533,0.81542 c 12.48193,5.4273 18.16292,19.84515 12.73563,32.32707 -5.42729,12.48191 -19.84628,18.16006 -32.3282,12.73276 l -94.39047,-41.04214 c -12.48192,-5.4273 -18.1629,-19.84516 -12.73561,-32.32707 5.42729,-12.48192 19.84626,-18.16006 32.32819,-12.73276 l -4.23694,-1.84228 c 12.21422,5.3109 26.32331,-0.24682 31.63421,-12.46104 5.31089,-12.21422 -0.24682,-26.32332 -12.46105,-31.63421 l -16.17051,-7.03115 c -12.48193,-5.42729 -18.16206,-19.84713 -12.73476,-32.32906 5.42729,-12.48191 19.84627,-18.16004 32.32819,-12.73275 z"
         style="fill:#3ca370;fill-opacity:1;stroke:none;stroke-width:2.67349;stroke-linecap:round;stroke-linejoin:round;stroke-miterlimit:4;stroke-dasharray:none;stroke-dashoffset:0;stroke-opacity:1;paint-order:fill markers stroke" />
      <rect
         style="fill:#3ca370;fill-opacity:1;stroke:none;stroke-width:2.67349;stroke-linecap:round;stroke-linejoin:round;stroke-miterlimit:4;stroke-dasharray:none;stroke-dashoffset:0;stroke-opacity:1;paint-order:fill markers stroke"
         id="rect1061"
         width="147.04221"
         height="61.108452"
         x="473.32364"
         y="101.24201"
         ry="29.516317"
         transform="rotate(23.500002)" />
      <rect
         ry="29.516317"
         y="221.54926"
         x="720.62189"
         height="61.108452"
         width="147.04221"
         id="rect1063"
         style="fill:#3ca370;fill-opacity:1;stroke:none;stroke-width:2.67349;stroke-linecap:round;stroke-linejoin:round;stroke-miterlimit:4;stroke-dasharray:none;stroke-dashoffset:0;stroke-opacity:1;paint-order:fill markers stroke"
         transform="rotate(23.500002)" />
      <path
         inkscape:connector-curvature="0"
         style="fill:#ffffff;fill-opacity:1;stroke:none;stroke-width:2.67349;stroke-linecap:round;stroke-linejoin:round;stroke-miterlimit:4;stroke-dasharray:none;stroke-dashoffset:0;stroke-opacity:1;paint-order:fill markers stroke"
         d="M 646.41145,197.8072 A 237.6561,237.6561 0 0 0 538.40288,182.90621 c -0.0151,0.0345 -0.0322,0.0673 -0.0472,0.1019 l -0.82868,1.90585 c -6.52036,14.99581 0.30478,32.31743 15.30059,38.83779 l 156.01207,67.83598 c 14.99581,6.52037 32.31879,-0.30135 38.83915,-15.29715 l 0.82869,-1.90585 c 0.0503,-0.11572 0.0912,-0.23312 0.14011,-0.34904 a 237.6561,237.6561 0 0 0 -87.21702,-69.69798 z"
         id="path1065" />
      <path
         inkscape:connector-curvature="0"
         style="fill:#ffffff;fill-opacity:1;stroke:none;stroke-width:2.67349;stroke-linecap:round;stroke-linejoin:round;stroke-miterlimit:4;stroke-dasharray:none;stroke-dashoffset:0;stroke-opacity:1;paint-order:fill markers stroke"
         d="m 418.58072,575.60108 c -11.15144,-4.84879 -23.58688,-2.31351 -31.91244,5.46917 a 237.6561,237.6561 0 0 0 79.13841,56.13553 237.6561,237.6561 0 0 0 95.02398,19.42447 c -0.0518,-11.33436 -6.6626,-22.07411 -17.75872,-26.89884 z"
         id="path1067" />
      <rect
         style="fill:#ffffff;fill-opacity:1;stroke:none;stroke-width:2.67349;stroke-linecap:round;stroke-linejoin:round;stroke-miterlimit:4;stroke-dasharray:none;stroke-dashoffset:0;stroke-opacity:1;paint-order:fill markers stroke"
         id="rect1069"
         width="165.44417"
         height="65.581482"
         x="624.05493"
         y="201.17111"
         ry="32.790741"
         transform="rotate(23.500002)" />
      <rect
         ry="25.547874"
         y="132.02841"
         x="748.31158"
         height="51.095749"
         width="128.90063"
         id="rect1071"
         style="fill:#ffffff;fill-opacity:1;stroke:none;stroke-width:2.67349;stroke-linecap:round;stroke-linejoin:round;stroke-miterlimit:4;stroke-dasharray:none;stroke-dashoffset:0;stroke-opacity:1;paint-order:fill markers stroke"
         transform="rotate(23.500002)" />
      <rect
         ry="26.734947"
         y="148.02815"
         x="494.19946"
         height="53.469894"
         width="134.88995"
         id="rect1073"
         style="fill:#ffffff;fill-opacity:1;stroke:none;stroke-width:2.67349;stroke-linecap:round;stroke-linejoin:round;stroke-miterlimit:4;stroke-dasharray:none;stroke-dashoffset:0;stroke-opacity:1;paint-order:fill markers stroke"
         transform="rotate(23.500002)" />
      <rect
         ry="32.790741"
         y="12.11685"
         x="551.48865"
         height="65.581482"
         width="165.44417"
         id="rect1075"
         style="fill:#ffffff;fill-opacity:1;stroke:none;stroke-width:2.67349;stroke-linecap:round;stroke-linejoin:round;stroke-miterlimit:4;stroke-dasharray:none;stroke-dashoffset:0;stroke-opacity:1;paint-order:fill markers stroke"
         transform="rotate(23.500002)" />
      <circle
         r="237.6561"
         cy="160.96109"
         cx="681.25824"
         id="circle1077"
         style="fill:none;fill-opacity:1;stroke:none;stroke-width:13.3675;stroke-linecap:round;stroke-linejoin:round;stroke-miterlimit:4;stroke-dasharray:none;stroke-dashoffset:0;stroke-opacity:1;paint-order:fill markers stroke"
         transform="rotate(23.500002)" />
    </g>
    <path
       style="fill:#4b5bab;fill-opacity:1;stroke:#4da6ff;stroke-width:4.83715;stroke-linecap:square;stroke-linejoin:miter;stroke-miterlimit:4;stroke-dasharray:none;stroke-dashoffset:0;stroke-opacity:1;paint-order:fill markers stroke"
       inkscape:transform-center-x="-3.5390187"
       inkscape:transform-center-y="-4.4909814"
       d="m 90.131392,47.74043 c 1.441055,-0.406134 3.805742,0.625176 6.513298,2.489478 2.707584,1.86436 1.42298,8.728285 4.23535,11.654384 2.81238,2.926088 9.72175,1.914431 11.47737,4.693767 1.75555,2.779294 2.69235,5.182985 2.22948,6.60687 -1.85134,5.695461 -32.113865,14.222917 -36.026786,10.151754 -3.91288,-4.07112 5.806983,-33.972 11.571288,-35.596253 z"
       id="path2602"
       inkscape:connector-curvature="0"
       sodipodi:nodetypes="sscscss" />
    <g
       id="g1558"
       transform="matrix(0.41276914,0.11060116,-0.11060116,0.41276914,35.289935,-81.564526)">
      <path
         sodipodi:type="star"
         style="fill:#ffffff;fill-opacity:1;stroke:none;stroke-width:2.22574;stroke-linecap:round"
         id="use1272"
         sodipodi:sides="4"
         sodipodi:cx="-224.10666"
         sodipodi:cy="-171.96913"
         sodipodi:r1="17.065401"
         sodipodi:r2="6.5172825"
         sodipodi:arg1="1.5707963"
         sodipodi:arg2="2.3561945"
         inkscape:flatsided="false"
         inkscape:rounded="0"
         inkscape:randomized="0"
         transform="matrix(0.87079209,0.20157997,-0.20157997,0.87079209,252.39173,446.19616)"
         d="m -224.10666,-154.90373 -4.60841,-12.45699 -12.45699,-4.60841 12.45699,-4.60842 4.60841,-12.45698 4.60842,12.45698 12.45698,4.60842 -12.45698,4.60841 z" />
      <path
         sodipodi:type="star"
         style="fill:#ffffff;fill-opacity:1;stroke:none;stroke-width:2.22574;stroke-linecap:round;filter:url(#filter1526)"
         id="use1304"
         sodipodi:sides="4"
         sodipodi:cx="-224.10666"
         sodipodi:cy="-171.96913"
         sodipodi:r1="17.065401"
         sodipodi:r2="6.5172825"
         sodipodi:arg1="1.5707963"
         sodipodi:arg2="2.3561945"
         inkscape:flatsided="false"
         inkscape:rounded="0"
         inkscape:randomized="0"
         transform="matrix(0.87079209,0.20157997,-0.20157997,0.87079209,252.39173,446.19616)"
         d="m -224.10666,-154.90373 -4.60841,-12.45699 -12.45699,-4.60841 12.45699,-4.60842 4.60841,-12.45698 4.60842,12.45698 12.45698,4.60842 -12.45698,4.60841 z" />
    </g>
    <g
       id="g1554"
       transform="matrix(0.41276914,0.11060116,-0.11060116,0.41276914,35.289935,-81.564526)">
      <path
         sodipodi:type="star"
         style="fill:#ffffff;fill-opacity:1;stroke:none;stroke-width:2.22574;stroke-linecap:round"
         id="use1292"
         sodipodi:sides="4"
         sodipodi:cx="-224.10666"
         sodipodi:cy="-171.96913"
         sodipodi:r1="17.065401"
         sodipodi:r2="6.5172825"
         sodipodi:arg1="1.5707963"
         sodipodi:arg2="2.3561945"
         inkscape:flatsided="false"
         inkscape:rounded="0"
         inkscape:randomized="0"
         transform="matrix(0.66791434,0.54932344,-0.54932344,0.66791434,85.500042,497.03836)"
         d="m -224.10666,-154.90373 -4.60841,-12.45699 -12.45699,-4.60841 12.45699,-4.60842 4.60841,-12.45698 4.60842,12.45698 12.45698,4.60842 -12.45698,4.60841 z" />
      <path
         sodipodi:type="star"
         style="fill:#ffffff;fill-opacity:1;stroke:none;stroke-width:2.22574;stroke-linecap:round;filter:url(#filter1526)"
         id="use1312"
         sodipodi:sides="4"
         sodipodi:cx="-224.10666"
         sodipodi:cy="-171.96913"
         sodipodi:r1="17.065401"
         sodipodi:r2="6.5172825"
         sodipodi:arg1="1.5707963"
         sodipodi:arg2="2.3561945"
         inkscape:flatsided="false"
         inkscape:rounded="0"
         inkscape:randomized="0"
         transform="matrix(0.66791434,0.54932344,-0.54932344,0.66791434,85.500042,497.03836)"
         d="m -224.10666,-154.90373 -4.60841,-12.45699 -12.45699,-4.60841 12.45699,-4.60842 4.60841,-12.45698 4.60842,12.45698 12.45698,4.60842 -12.45698,4.60841 z" />
    </g>
    <g
       id="g1562"
       transform="matrix(0.41276914,0.11060116,-0.11060116,0.41276914,35.289935,-81.564526)">
      <path
         sodipodi:type="star"
         style="fill:#ffffff;fill-opacity:1;stroke:none;stroke-width:2.22574;stroke-linecap:round"
         id="use1294"
         sodipodi:sides="4"
         sodipodi:cx="-224.10666"
         sodipodi:cy="-171.96913"
         sodipodi:r1="17.065401"
         sodipodi:r2="6.5172825"
         sodipodi:arg1="1.5707963"
         sodipodi:arg2="2.3561945"
         inkscape:flatsided="false"
         inkscape:rounded="0"
         inkscape:randomized="0"
         transform="matrix(0.79968034,-0.49402201,0.49402201,0.79968034,420.68779,264.10573)"
         d="m -224.10666,-154.90373 -4.60841,-12.45699 -12.45699,-4.60841 12.45699,-4.60842 4.60841,-12.45698 4.60842,12.45698 12.45698,4.60842 -12.45698,4.60841 z" />
      <path
         sodipodi:type="star"
         style="fill:#ffffff;fill-opacity:1;stroke:none;stroke-width:2.22574;stroke-linecap:round;filter:url(#filter1526)"
         id="use1314"
         sodipodi:sides="4"
         sodipodi:cx="-224.10666"
         sodipodi:cy="-171.96913"
         sodipodi:r1="17.065401"
         sodipodi:r2="6.5172825"
         sodipodi:arg1="1.5707963"
         sodipodi:arg2="2.3561945"
         inkscape:flatsided="false"
         inkscape:rounded="0"
         inkscape:randomized="0"
         transform="matrix(0.79968034,-0.49402201,0.49402201,0.79968034,420.68779,264.10573)"
         d="m -224.10666,-154.90373 -4.60841,-12.45699 -12.45699,-4.60841 12.45699,-4.60842 4.60841,-12.45698 4.60842,12.45698 12.45698,4.60842 -12.45698,4.60841 z" />
    </g>
  </g>
</svg>
